<?xml version="1.0"?>
<svg xmlns="http://www.w3.org/2000/svg" width="320" height="320" viewBox="0,0,320,320">
<g><path fill="#0395AA" opacity="0.2" d="m 153.2 6.4 0 0 C 137.7 36 118 50.8 94 50.8 86.5 50.8 77.2 48.4 66 43.6 l 0.4 0 c 1.6 1.1 2 2.8 1.2 5.2 -1.1 3.2 -2.9 4.8 -5.6 4.8 -1.3 0 -2.7 -0.3 -4 -0.8 -3.2 -1.6 -4.8 -4.4 -4.8 -8.4 l 0 0 c -0 -1.6 0.3 -3.5 0.8 -5.6 -9.6 -3.5 -16.7 -5.2 -21.2 -5.2 -8 0 -14.5 2.5 -19.4 7.6 -4.9 5.1 -7.4 11.6 -7.4 19.6 -0 6.1 2.3 12.1 6.8 18 L 9.2 74.4 C 3.1 67.7 0 59.6 0 50 0 35.6 5.3 23.7 15.8 14.2 26.3 4.7 39.6 0.8 55.6 2.4 70.3 3.7 82.8 6.5 93.2 10.8 c 14.1 5.9 23.2 8.8 27.2 8.8 10.4 0 21.3 -4.4 32.8 -13.2 z m 56.4 7.6 c 2.1 -0.3 4.4 -0.4 6.8 -0.4 19.2 0 37.7 7.7 55.6 23.2 22.1 18.9 32.8 43.2 32 72.8 l 0 0 c 5.1 1.3 7.7 4.7 8 10 -0 3.7 -1.3 6.3 -3.8 7.6 -2.5 1.3 -4.5 1.5 -5.8 0.4 l 0 0 c -4.8 23.5 -12.4 43.6 -22.8 60.4 -24.3 40 -59.7 59.6 -106.4 58.8 -18.1 2.4 -27.9 -6.5 -29.2 -26.8 l 0 -148.8 11.6 -7.2 0 154.8 c -0 2.9 0.4 5.5 1.2 7.6 2.1 5.3 5.5 8.3 10 8.8 2.7 0.3 5.3 0.4 8 0.4 26.9 0 47.1 -16.3 60.4 -48.8 5.6 -13.6 9.6 -29.9 12 -48.8 0.5 -4.8 0.8 -9.5 0.8 -14 -0 -33.3 -10.9 -58.3 -32.8 -74.8 -9.1 -6.7 -20 -11.5 -32.8 -14.4 l 0 0 c -33.1 2.9 -49.6 16.5 -49.6 40.8 l 0 122.4 c -0 42.1 -17.2 65.9 -51.6 71.2 -10.1 -0.3 -19.7 -2.4 -28.8 -6.4 -2.9 -1.1 -5.7 -1.6 -8.4 -1.6 -4 0 -7.3 1.3 -9.8 3.8 -2.5 2.5 -3.8 5.4 -3.8 8.6 0.5 6.4 4 12.7 10.4 18.8 9.3 8.5 22.7 13.2 40 14 21.3 0.8 38.3 -4.8 50.8 -16.8 -5.3 -8 -8 -15.1 -8 -21.2 -0.3 -14.1 5.5 -22 17.2 -23.6 9.9 0.3 14.7 6.7 14.4 19.2 -1.3 10.1 -4.8 18.9 -10.4 26.4 8.3 7.2 20.4 10.7 36.4 10.4 29.1 -1.9 42.3 -13.1 39.6 -33.6 -0.5 -5.3 -2 -9.6 -4.4 -12.8 -2.4 -3.5 -2 -5.2 1.2 -5.2 2.4 0 4.8 2.7 7.2 8.2 2.4 5.5 3.7 9.5 4 12.2 0.8 9.1 -2.1 17.7 -8.8 26 -9.3 12 -24.1 17.6 -44.4 16.8 -15.5 -0.8 -27.9 -5.7 -37.2 -14.8 C 124.5 310.7 104.9 317.6 79.6 318.4 66.3 317.3 54.8 314.8 45.2 310.8 22 300.7 9.7 283.5 8.4 259.2 6.8 225.6 22.7 208 56 206.4 l 5.2 0 c 1.9 -5.3 2.8 -10.4 2.8 -15.2 -0 -13.1 -5.7 -23.6 -17.2 -31.6 1.3 -7.7 7.1 -13.7 17.2 -18 l -0.8 -6 c -6.9 0.8 -10.8 -1.6 -11.6 -7.2 -0.3 -5.3 2.9 -9.5 9.6 -12.4 C 58.8 92.5 73.1 71.7 104 53.6 143.5 34.7 178.7 21.5 209.6 14 z m 89.2 110.4 c -0 -1.1 -0.5 -1.6 -1.6 -1.6 -0.8 0 -1.3 0.4 -1.6 1.2 -3.2 22.1 -9.9 41.7 -20 58.8 -15.7 25.9 -38 42.4 -66.8 49.6 l 3.2 -4.4 c 25.3 -15.5 39.6 -47.7 42.8 -96.8 C 255.3 96.8 246.9 69.9 229.6 50.4 215.7 35.2 201.5 28.1 186.8 29.2 l -4 -1.6 c 18.4 -5.1 31.7 -7.2 40 -6.4 13.1 2.7 26.1 8.9 39.2 18.8 21.6 16.8 33.2 39.2 34.8 67.2 -0 0.8 0.4 1.2 1.2 1.2 0.5 0 1.2 -0.4 2 -1.2 C 299.7 80.5 289.2 58.1 268.4 40 251.6 25.1 235.3 17.3 219.6 16.8 199.6 15.7 160.3 30 101.6 59.6 76.8 74.3 65.1 92 66.4 112.8 c 0.3 0.8 0.8 1.6 1.6 2.4 0.5 -0.3 1.1 -0.8 1.6 -1.6 0.5 -7.7 2.3 -14.9 5.2 -21.6 7.2 -15.7 20.1 -27.6 38.8 -35.6 -7.2 5.9 -10.8 17.2 -10.8 34 -0 9.9 1.2 20.8 3.6 32.8 0.8 4.8 1.7 16.4 2.8 34.8 -5.6 33.3 -18.5 48.4 -38.8 45.2 1.1 -5.3 1.6 -10.9 1.6 -16.8 -0 -16.3 -4.7 -26.9 -14 -32 -0 -0.8 2 -2.4 6 -4.8 0.8 -0.5 1.9 -0.2 3.2 1 1.3 1.2 2 2.7 2 4.6 -0.3 6.1 0.5 8.5 2.4 7.2 1.6 -4.8 2 -10.9 1.2 -18.4 -0.5 -4.3 -1.1 -8.4 -1.6 -12.4 -0 -1.9 -0.5 -2.7 -1.6 -2.4 -0.8 0.3 -1.5 1.2 -2 2.8 -0.3 2.1 0.1 6.7 1.2 13.6 -2.4 0 -4.7 0.4 -6.8 1.2 -4.8 1.6 -7.9 4.7 -9.2 9.2 10.9 6.9 16.4 17.2 16.4 30.8 -0 6.1 -1.2 12.5 -3.6 19.2 2.1 1.6 5.2 2.1 9.2 1.6 22.7 -2.9 35.3 -19.3 38 -49.2 0.3 -6.1 -0.8 -17.7 -3.2 -34.8 -2.4 -17.1 -3.5 -29.2 -3.2 -36.4 0.5 -4.5 1.2 -8.8 2 -12.8 2.4 -9.3 5.9 -16.3 10.4 -20.8 l 8.8 10 0 123.2 c -0 21.6 -9.2 32.4 -27.6 32.4 -6.7 0 -12.9 -1.5 -18.8 -4.4 -4.5 -1.9 -13.2 -3.9 -26 -6 -16.8 -0.3 -28.9 6.7 -36.4 20.8 -4 7.2 -6.3 15.5 -6.8 24.8 -0.8 10.1 2.1 20.5 8.8 31.2 11.2 18.4 30.8 27.6 58.8 27.6 25.1 0 44.1 -5.7 57.2 -17.2 0.8 -0.8 1.9 -2 3.2 -3.6 0.8 -0.5 1.9 -1.6 3.2 -3.2 6.1 -7.7 9.6 -16.1 10.4 -25.2 0.5 -4 -0.4 -7.9 -2.8 -11.8 -2.4 -3.9 -5.3 -5.7 -8.8 -5.4 -3.7 0 -7 1.8 -9.8 5.4 -2.8 3.6 -4.2 8.1 -4.2 13.4 0.3 7.5 2.7 14.4 7.2 20.8 0.8 -0.8 1.5 -1.7 2 -2.8 -2.9 -4.5 -4.8 -9.7 -5.6 -15.6 -0.8 -10.4 2.1 -16.1 8.8 -17.2 4.5 -0.3 7.5 1.9 8.8 6.4 0.8 1.6 1.2 3.7 1.2 6.4 -0.8 8.3 -4.3 16.1 -10.4 23.6 -1.9 1.3 -4 3.2 -6.4 5.6 -12.8 10.1 -29.2 15.2 -49.2 15.2 -16.5 0 -30.3 -3.3 -41.2 -10 -9.9 -6.1 -14.9 -13.6 -15.2 -22.4 -0 -2.7 0.8 -6.3 2.4 -10.8 1.6 -4.5 3.5 -6.9 5.6 -7.2 -0.5 -2.7 -1.7 -3.2 -3.6 -1.6 -4.8 3.7 -7.2 8.8 -7.2 15.2 -0 5.1 1.6 11.3 4.8 18.8 -8.5 -6.7 -13.6 -17.9 -15.2 -33.6 -1.3 -11.5 2.3 -22 11 -31.6 8.7 -9.6 17.7 -13.9 27 -12.8 8.5 0.8 18.8 3.7 30.8 8.8 5.6 2.1 11.3 3.2 17.2 3.2 13.6 0 22.8 -6.8 27.6 -20.4 -5.6 33.9 -21.3 52.1 -47.2 54.8 -8 -0.3 -16.4 -2.3 -25.2 -6 -3.5 -1.6 -5.7 -2.3 -6.8 -2 -1.3 0.5 -2 1.1 -2 1.6 -0 0.8 0.9 1.6 2.8 2.4 1.1 0.3 2.8 1.1 5.2 2.4 8.3 4.8 17.5 6.8 27.6 6 32 -5.6 48 -26.4 48 -62.4 l 0 -129.6 c 1.3 -7.5 3.9 -13.9 7.6 -19.2 8.8 -13.1 22.7 -19.9 41.6 -20.4 13.9 2.4 25.7 7.1 35.6 14 23.7 16.5 35.6 42.8 35.6 78.8 -0 4.5 -0.1 9.2 -0.4 14 -2.9 19.2 -7.3 35.9 -13.2 50 -14.1 33.3 -34.7 50 -61.6 50 -3.2 0 -6.4 -0.3 -9.6 -0.8 -8 -1.3 -12.3 -7.5 -12.8 -18.4 l 0 -149.6 -4.4 2.8 0 148.4 c -0 13.3 7.3 20.7 22 22 46.7 0.8 82 -18.7 106 -58.4 9.9 -16.5 17.1 -36.4 21.6 -59.6 z M 255.2 50 c -2.9 0.3 -5.3 1.9 -7.2 4.8 -4 6.1 -3.3 11.2 2 15.2 3.7 2.7 6.7 2.5 8.8 -0.4 1.3 -1.9 0.9 -3.6 -1.2 -5.2 -1.1 -0.3 -1.5 -0.3 -1.2 0 0.3 0.8 0 1.7 -0.8 2.8 -0.8 1.1 -1.6 1.6 -2.4 1.6 -2.9 0 -4.4 -2.3 -4.4 -6.8 -0 -2.1 0.7 -4.1 2 -6 2.4 -2.7 4.9 -4 7.6 -4 2.4 0 4.8 1.1 7.2 3.2 3.2 3.2 4.3 7.2 3.2 12 -1.6 4.3 -3.2 8.7 -4.8 13.2 -2.9 8 -4.4 15.2 -4.4 21.6 -0 7.5 1.7 14.1 5.2 20 l 1.6 0.8 c -0.8 -4 -1.2 -8.3 -1.2 -12.8 -0 -9.6 2 -16.8 6 -21.6 2.4 -2.1 4.8 -3.2 7.2 -3.2 1.9 0 3.6 0.5 5.2 1.6 3.5 2.7 4.3 6.1 2.4 10.4 -2.4 -2.1 -4.5 -2.3 -6.4 -0.4 -1.3 1.9 -1.1 3.6 0.8 5.2 1.6 1.9 3.7 1.9 6.4 0 1.9 -1.6 2.8 -4.1 2.8 -7.6 -0 -7.7 -3.7 -11.6 -11.2 -11.6 -4.8 0 -8.7 2.4 -11.6 7.2 -0.8 1.3 -1.3 2.7 -1.6 4 -0.5 -3.7 0.9 -7.6 4.2 -11.6 3.3 -4 5.8 -5.7 7.4 -5.2 1.6 0.5 2.9 0.3 4 -0.8 1.9 -2.4 1.2 -3.7 -2 -4 -4.3 -0.3 -8.3 2.4 -12 8 3.7 -5.3 5.6 -10.5 5.6 -15.6 -0 -4.3 -1.1 -7.9 -3.2 -10.8 -1.1 -2.1 -7.5 -5.7 -19.2 -10.8 -1.1 -0.8 -1.5 -2 -1.2 -3.6 1.1 -2.1 2.5 -2.4 4.4 -0.8 -0.8 -1.6 -1.7 -2.4 -2.8 -2.4 -0.8 0 -1.7 0.5 -2.8 1.6 -0.5 -5.9 -2.1 -8.3 -4.8 -7.2 0.8 0 1.9 2 3.2 6 -0.5 3.7 0.4 6.3 2.8 7.6 1.3 0.8 3.1 1.9 5.2 3.2 -10.4 2.7 -16.8 2 -19.2 -2 -1.6 -3.5 -1.2 -6 1.2 -7.6 1.9 -0.5 2.8 0.4 2.8 2.8 2.4 -0.8 3.1 -2.3 2 -4.4 -1.1 -2.4 -3.2 -3.1 -6.4 -2 -4 1.6 -4.9 5.2 -2.8 10.8 -1.3 -2.1 -2.7 -5.3 -4 -9.6 -1.3 -1.6 -4 -3.7 -8 -6.4 -3.7 -1.9 -5.6 -4 -5.6 -6.4 -0.5 0.8 -0.8 1.5 -0.8 2 -0 2.1 2.4 4.5 7.2 7.2 -2.1 0.5 -3.2 1.5 -3.2 2.8 -0 1.1 0.5 2.3 1.6 3.6 -0.3 -0.8 -0.4 -1.5 -0.4 -2 -0 -1.6 1.1 -2.4 3.2 -2.4 1.1 0 2.3 0.9 3.6 2.8 0.8 2.7 1.9 5.1 3.2 7.2 2.4 5.6 7.1 8.4 14 8.4 4 0 8.3 -0.8 12.8 -2.4 z m 54.4 69.6 c -0 -4.3 -2.7 -7.1 -8 -8.4 -4 -1.1 -9.6 2.4 -16.8 10.4 -0.5 -3.5 -0.9 -5.7 -1.2 -6.8 -0.8 -2.4 -2.1 -4 -3.8 -4.8 -1.7 -0.8 -3.3 -1.2 -4.6 -1.2 -0.5 0.5 -1.1 1.1 -1.6 1.6 0.3 1.3 0.4 2.5 0.4 3.6 -0 1.9 -0.9 4.4 -2.6 7.6 -1.7 3.2 -2.7 5.7 -3 7.6 -0.3 2.7 0.3 4.4 1.6 5.2 -5.6 -0.8 -8.9 -0.9 -10 -0.4 -2.4 1.3 -4.1 4.7 -5.2 10 0.5 0.5 1.3 1.1 2.4 1.6 7.5 -1.6 11.6 1.1 12.4 8 1.1 8.3 -0.5 12.5 -4.8 12.8 -2.1 -0.5 -3.1 -3.6 -2.8 -9.2 -1.6 7.5 -0.8 11.3 2.4 11.6 4.5 -1.6 6.8 -5.9 6.8 -12.8 -0 -4 -0.8 -8.8 -2.4 -14.4 2.4 6.1 3.6 11.6 3.6 16.4 -0 7.7 -2.7 12 -8 12.8 -1.1 0 -2 -0.4 -2.8 -1.2 -2.1 -1.9 -3.3 -5.3 -3.6 -10.4 -0.8 8.8 1.3 13.3 6.4 13.6 6.7 -1.1 10 -6.3 10 -15.6 -0 -4 -0.7 -8.5 -2 -13.6 2.4 5.6 3.6 10.8 3.6 15.6 -0 9.9 -3.7 15.5 -11.2 16.8 -6.4 0.3 -9.7 -4 -10 -12.8 -0.8 6.9 0.5 11.5 4 13.6 1.6 0.8 3.5 1.2 5.6 1.2 9.6 -2.1 14.4 -8.4 14.4 -18.8 -0 -3.7 -0.8 -8 -2.4 -12.8 2.4 4.8 3.6 9.5 3.6 14 -0 11.7 -5.2 18.1 -15.6 19.2 -6.9 0.3 -10.9 -3.6 -12 -11.6 1.1 9.6 4.3 14.4 9.6 14.4 0.8 0 1.7 -0.3 2.8 -0.8 12.3 -2.9 18.4 -10.4 18.4 -22.4 -0 -5.3 -1.5 -11.7 -4.6 -19 -3.1 -7.3 -3.4 -12.9 -1 -16.6 1.1 -1.9 1.2 -4.8 0.4 -8.8 2.4 3.2 2.9 6.4 1.6 9.6 -1.3 3.2 -0.8 9.6 1.6 19.2 0.3 1.6 1.2 5.6 2.8 12 -0 -5.3 0.1 -10.9 0.4 -16.8 0.3 -5.9 1.5 -10.8 3.6 -14.8 3.2 -5.3 6.4 -8 9.6 -8 1.3 0 2.5 0.7 3.6 2 -0.3 0.3 -0.5 0.8 -0.8 1.6 -0.3 3.5 0.9 5.3 3.6 5.6 3.7 0.8 5.6 -1.1 5.6 -5.6 z M 122.4 33.2 c -0 -1.9 -1.3 -4.4 -4 -7.6 1.9 2.4 2.8 4.8 2.8 7.2 -0 2.4 -1.1 4.3 -3.2 5.6 2.7 -0.8 4.1 -2.5 4.4 -5.2 z m -3.2 0.4 c -0 -2.1 -1.7 -5.2 -5.2 -9.2 2.4 3.2 3.6 6.1 3.6 8.8 -0 2.9 -1.3 5.2 -4 6.8 3.2 -0.8 5.1 -2.9 5.6 -6.4 z m 156 146.8 c -4.8 2.4 -9.1 3.6 -12.8 3.6 -5.9 0 -9.5 -2.8 -10.8 -8.4 -0.5 5.9 1.7 9.3 6.8 10.4 7.5 1.1 13.1 -0.8 16.8 -5.6 z m -4.8 6.4 c -3.2 1.1 -6.3 1.6 -9.2 1.6 -6.9 0 -10.8 -3.1 -11.6 -9.2 -0.5 5.1 1.5 8.7 6 10.8 6.1 2.1 11.1 1.1 14.8 -3.2 z m -4 4.8 c -2.7 0.8 -5.3 1.2 -8 1.2 -6.7 0 -10.3 -2.9 -10.8 -8.8 -0.3 4.5 1.5 7.9 5.2 10 5.9 1.9 10.4 1.1 13.6 -2.4 z m -3.6 4 c -2.4 0.8 -4.7 1.2 -6.8 1.2 -6.1 0 -9.6 -2.8 -10.4 -8.4 -0.5 4.3 1.1 7.2 4.8 8.8 5.1 1.9 9.2 1.3 12.4 -1.6 z m -3.2 4 c -2.1 0.5 -4.3 0.8 -6.4 0.8 -5.6 0 -8.8 -2.4 -9.6 -7.2 -0.3 3.7 1.2 6.4 4.4 8 4.8 1.6 8.7 1.1 11.6 -1.6 z M 115.2 36.4 c 1.1 -1.3 1.6 -2.8 1.6 -4.4 -0 -3.5 -2.7 -6.5 -8 -9.2 5.6 3.7 7.3 8 5.2 12.8 -2.7 4.5 -6.7 6.8 -12 6.8 -5.1 0 -9.9 -2.7 -14.4 -8 5.1 4.5 9.9 6.8 14.4 6.8 4.3 0 7.9 -2 10.8 -6 0.5 -1.1 0.8 -2.1 0.8 -3.2 -0 -3.7 -2.9 -6.5 -8.8 -8.4 6.4 3.2 8.5 6.9 6.4 11.2 -1.9 2.9 -4.7 4.4 -8.4 4.4 -5.3 0 -10.7 -2.7 -16 -8 5.9 4.5 10.8 6.8 14.8 6.8 3.5 0 6 -1.5 7.6 -4.4 1.3 -3.7 -1.1 -6.5 -7.2 -8.4 4.8 2.7 6.7 5.3 5.6 8 -1.1 2.1 -3.1 3.2 -6 3.2 -4.5 0 -9.6 -2.8 -15.2 -8.4 5.6 4.5 10.4 6.8 14.4 6.8 2.4 0 4.3 -0.7 5.6 -2 0.8 -2.4 -1.6 -4.1 -7.2 -5.2 4 1.6 5.7 3.1 5.2 4.4 -1.1 2.9 -4.3 2.9 -9.6 0 -2.7 -1.6 -4 -3.5 -4 -5.6 -0 -1.9 0.7 -3.6 2 -5.2 0.5 -0.8 0.4 -1.6 -0.4 -2.4 -4 -0.8 -6.8 -0.5 -8.4 0.8 -0.5 0.5 -1.5 2.9 -2.8 7.2 -0 -1.1 -1.1 -1.9 -3.2 -2.4 -3.2 0.5 -7.9 -0.1 -14 -2 -0.5 -0.5 -1 -0.3 -1.4 0.6 -0.4 0.9 -0.6 2.1 -0.6 3.4 -0 2.1 2.1 4.5 6.4 7.2 -4.3 1.3 -6.8 2.3 -7.6 2.8 -2.7 1.6 -4.1 3.6 -4.4 6 -1.1 5.3 0.8 8 5.6 8 1.6 0 2.7 -0.9 3.2 -2.8 0.5 -1.9 -0.4 -3.2 -2.8 -4 0.5 0.3 -0 0.4 -1.6 0.4 -0.3 -0.5 -0.4 -1.2 -0.4 -2 -0 -2.9 2.8 -4.8 8.4 -5.6 3.5 -0.5 7.2 -0 11.2 1.6 4 1.6 7.9 3.1 11.6 4.4 -2.7 -1.9 -5.1 -3.6 -7.2 -5.2 -5.9 -4.5 -10.3 -6.7 -13.2 -6.4 -1.1 0 -2.9 -1.5 -5.6 -4.4 2.4 1.9 4.5 2.8 6.4 2.8 3.2 -0.8 6.9 0.9 11.2 5.2 6.1 6.7 12.1 10 18 10 5.6 0 10.3 -2.7 14 -8 z M 256.4 203.2 c -2.1 0.5 -4.3 0.8 -6.4 0.8 -5.3 0 -8.1 -2.3 -8.4 -6.8 -0.8 3.5 0.3 6 3.2 7.6 4.8 1.6 8.7 1.1 11.6 -1.6 z M 146 14 c -9.6 5.3 -18.4 8 -26.4 8 -4.5 0 -8.5 -1.1 -12 -3.2 C 87.6 10 68.3 5.2 49.6 4.4 43.7 4.9 38.3 6 33.2 7.6 21.5 11.6 13.2 18.5 8.4 28.4 4.7 34.8 2.8 42 2.8 50 c -0 3.2 0.4 6.4 1.2 9.6 1.9 -18.7 11.5 -28 28.8 -28 6.9 0 14.5 1.9 22.8 5.6 0.8 0.3 1.5 0.1 2 -0.4 0.3 -0.5 0.1 -1.2 -0.4 -2 C 46.8 31.1 38.1 29.2 31.2 29.2 19.5 29.2 10.7 34.9 4.8 46.4 8.5 21.9 23.6 8.8 50 7.2 55.6 7.5 61.2 8.1 66.8 9.2 80.1 11.3 92.5 15.1 104 20.4 c 5.3 2.4 11.2 3.6 17.6 3.6 6.1 0 11.9 -1.1 17.2 -3.2 -9.9 16.3 -24.3 24.4 -43.2 24.4 -8.3 0 -16.3 -1.5 -24 -4.4 -0.8 -0.5 -2.3 -1.2 -4.4 -2 -1.1 -0.5 -1.9 -0.4 -2.4 0.4 -0.3 0.8 -0.1 1.5 0.4 2 15.2 5.6 25.3 8 30.4 7.2 6.9 -0.8 13.5 -2.5 19.6 -5.2 14.1 -6.1 24.4 -15.9 30.8 -29.2 z m 105.2 193.2 c -8.3 2.4 -12.4 0.4 -12.4 -6 -0.3 1.1 -0.4 2 -0.4 2.8 -0 2.1 0.9 3.6 2.8 4.4 4 1.6 7.3 1.2 10 -1.2 z m -4 4 c -7.5 2.1 -11.3 0.4 -11.6 -5.2 -0.8 3.2 0 5.3 2.4 6.4 3.7 1.3 6.8 0.9 9.2 -1.2 z M 68 20.4 c 0.3 -0.3 -0.3 -1.1 -1.6 -2.4 -1.3 -1.3 -4.5 -2.9 -9.6 -4.8 -4 -0.3 -7.6 0.9 -10.8 3.6 -1.6 2.1 -3.3 4.2 -5 6.2 -1.7 2 -3.8 2.9 -6.2 2.6 -3.5 -0.8 -4.9 -2.8 -4.4 -6 0.5 -4.5 2 -5.6 4.4 -3.2 -0.3 -1.3 -0.4 -0.9 -0.4 1.2 0.5 1.9 1.7 2 3.6 0.4 1.3 -1.3 1.2 -2.5 -0.4 -3.6 -2.4 -1.1 -4.5 -1.1 -6.4 0 -1.9 1.1 -2.8 2.8 -2.8 5.2 -0 5.1 2.5 7.7 7.6 8 2.4 0 4.1 -0.7 5.2 -2 1.1 -1.3 2.7 -2.9 4.8 -4.8 -0 1.6 0.7 3.7 2 6.4 2.4 2.1 4.8 2.8 7.2 2 3.7 -1.1 5.5 -3.2 5.2 -6.4 -0 -1.1 -0.5 -1.7 -1.6 -2 -1.1 -0.5 -1.9 -0.4 -2.4 0.4 -0.8 1.1 -0.8 1.9 0 2.4 0.5 0.8 0.8 1.5 0.8 2 -1.3 1.9 -3.1 2.3 -5.2 1.2 -4.8 -2.1 -5.7 -4.9 -2.8 -8.4 1.6 -2.1 3.3 -3.2 5.2 -3.2 0.5 -0.3 1.1 -0.4 1.6 -0.4 2.1 0 5.5 1.7 10 5.2 0.8 0.8 1.5 0.9 2 0.4 z M 242.8 214.8 c -6.7 1.6 -9.9 -0.1 -9.6 -5.2 -1.6 2.9 -1.2 5.1 1.2 6.4 3.7 1.1 6.5 0.7 8.4 -1.2 z m -5.2 3.2 c -5.6 1.6 -8.4 0.4 -8.4 -3.6 -0.8 2.1 -0.3 3.6 1.6 4.4 2.7 1.1 4.9 0.8 6.8 -0.8 z m -5.6 2.8 c -4.5 1.3 -6.8 0.5 -6.8 -2.4 -0.5 1.3 -0.1 2.4 1.2 3.2 2.1 0.8 4 0.5 5.6 -0.8 z M 99.2 86.4 c 1.9 -2.4 2.3 -4.8 1.2 -7.2 -1.1 -2.4 -3.2 -3.6 -6.4 -3.6 -5.1 0 -8 2.5 -8.8 7.6 -0.3 2.4 0.3 4.5 1.6 6.4 1.1 0.8 2.7 2.5 4.8 5.2 -1.9 0 -4.4 0.5 -7.6 1.6 -2.7 2.4 -3.9 4.8 -3.6 7.2 0.5 4.5 2.7 6.8 6.4 6.8 1.1 0.3 2 -0.1 2.8 -1.2 0.5 -1.1 0.3 -2.1 -0.6 -3 -0.9 -0.9 -1.8 -1.1 -2.6 -0.6 -1.1 0.8 -1.7 1.1 -2 0.8 -1.9 -1.9 -2.1 -3.9 -0.8 -6 3.2 -4.8 6.4 -5.3 9.6 -1.6 2.1 2.1 3.1 4.3 2.8 6.4 1.6 2.1 -0.8 6.1 -7.2 12 -0.5 0.8 -0.7 1.5 -0.4 2 0.3 0.3 1.3 -0.2 3 -1.4 1.7 -1.2 3.9 -4.5 6.6 -9.8 1.1 -4.3 0.3 -8.4 -2.4 -12.4 -0.3 -0.5 -2 -2.4 -5.2 -5.6 -2.1 -1.9 -3.2 -3.7 -3.2 -5.6 -0 -1.9 0.8 -3.5 2.4 -5 1.6 -1.5 3.3 -1.9 5.2 -1.4 2.7 0.5 4 1.7 4 3.6 -0 0.5 -0.3 1.1 -0.8 1.6 -0.3 -0.3 -0.7 -0.4 -1.2 -0.4 -2.1 0.3 -2.5 1.5 -1.2 3.6 1.3 1.9 2.5 1.9 3.6 0 z m 24 99.2 0 -118.8 -6 -5.6 c -5.1 8.5 -7.6 18.1 -7.6 28.8 -0 5.1 0.7 13.5 2 25.2 1.9 14.9 3.1 26.7 3.6 35.2 0.8 37.3 -11.1 57.3 -35.6 60 6.4 4 12.5 6 18.4 6 8 0 14.8 -3.1 20.4 -9.2 3.2 -4.3 4.8 -11.5 4.8 -21.6 z m -20 -27.2 c 0.5 -5.1 -0.3 -8.5 -2.4 -10.4 -0.5 -0.5 -3.6 -1.1 -9.2 -1.6 1.6 -0.5 2.5 -2.1 2.8 -4.8 0.3 -1.6 0 -3.8 -0.8 -6.6 -0.8 -2.8 -1.2 -4.9 -1.2 -6.2 -0 -1.9 0.5 -3.6 1.6 -5.2 0.5 -0.8 0.1 -1.3 -1.2 -1.6 -1.3 -0.5 -2.7 -0.5 -4 0 -2.7 0.5 -5.2 3.6 -7.6 9.2 -4.8 -8.8 -9.2 -13.2 -13.2 -13.2 -6.9 0.3 -10 3.3 -9.2 9.2 0.5 2.1 1.9 3.2 4 3.2 2.7 0.3 4.3 -1.2 4.8 -4.4 -0.3 0.8 -0.5 0.3 -0.8 -1.6 1.1 -0.8 2 -1.2 2.8 -1.2 3.5 0 6.1 3.2 8 9.6 0.5 2.1 0.8 4.4 0.8 6.8 -0 2.9 -0.5 6.8 -1.6 11.6 -1.3 5.9 -2.1 9.6 -2.4 11.2 1.9 -3.7 3.6 -7.1 5.2 -10 4.3 -8.5 6.1 -14.4 5.6 -17.6 -0.5 -3.2 0.8 -6 4 -8.4 -1.9 3.5 -2.5 6.3 -2 8.4 1.3 4 -0.3 9.1 -4.8 15.2 -5.9 8 -8.8 15.3 -8.8 22 -0 8.3 4.1 14.5 12.4 18.8 1.6 0.5 3.1 0.8 4.4 0.8 5.1 0 8.9 -3.9 11.6 -11.6 -4 7.7 -9.1 10.7 -15.2 8.8 -6.9 -2.7 -10.4 -8 -10.4 -16 -0 -5.6 2.4 -11.3 7.2 -17.2 -4 6.1 -6 11.7 -6 16.8 -0 6.9 3.2 11.9 9.6 14.8 6.9 2.1 11.3 -1.9 13.2 -12 -2.9 8.5 -7.2 11.9 -12.8 10 -4.8 -2.1 -7.2 -6.3 -7.2 -12.4 -0 -5.6 2.4 -11.9 7.2 -18.8 -4 6.9 -6 12.8 -6 17.6 -0 6.1 2.3 9.9 6.8 11.2 4.8 0.5 7.7 -3.2 8.8 -11.2 -2.1 6.7 -4.9 9.7 -8.4 9.2 -3.5 -1.3 -5.2 -4.4 -5.2 -9.2 -0 -5.3 2.5 -11.5 7.6 -18.4 -4 6.7 -6 12.4 -6 17.2 -0 4 1.3 6.8 4 8.4 2.9 0.5 4.5 -2.8 4.8 -10 -1.1 5.3 -2.5 7.9 -4.4 7.6 -4 -1.1 -4.5 -5.2 -1.6 -12.4 1.6 -4 4.1 -6 7.6 -6 1.9 0 3.6 0.4 5.2 1.2 1.1 0.5 1.9 0.3 2.4 -0.8 z m -14.8 35.2 c -1.1 0.5 -2.1 0.8 -3.2 0.8 -3.7 0 -6.5 -3.1 -8.4 -9.2 -0.5 3.5 0.8 6.4 4 8.8 2.7 1.6 5.2 1.5 7.6 -0.4 z m -3.2 4.8 c -1.1 0.5 -2 0.8 -2.8 0.8 -3.2 0 -5.6 -2.5 -7.2 -7.6 -0.5 2.7 0.7 5.1 3.6 7.2 2.1 1.3 4.3 1.2 6.4 -0.4 z m 26.8 35.6 c -1.6 -1.9 -3.5 -3.9 -5.6 -6 3.2 2.4 4.8 4.9 4.8 7.6 -0 1.3 -0.7 2.7 -2 4 2.4 -1.3 3.3 -3.2 2.8 -5.6 z m -6.4 8.8 c 1.3 -1.9 2 -3.7 2 -5.6 -0 -4 -3.1 -7.7 -9.2 -11.2 4.5 3.5 6.8 7.2 6.8 11.2 -0 1.6 -0.4 3.1 -1.2 4.4 -2.9 4.8 -7.3 7.2 -13.2 7.2 -6.4 0 -12.5 -3.3 -18.4 -10 6.4 5.9 12.4 8.8 18 8.8 5.1 0 9.2 -2.3 12.4 -6.8 0.8 -1.1 1.2 -2.3 1.2 -3.6 -0 -4.3 -3.5 -7.7 -10.4 -10.4 5.6 2.9 8.4 6.3 8.4 10 -0 1.3 -0.4 2.5 -1.2 3.6 -2.1 3.2 -5.3 4.8 -9.6 4.8 -6.4 0 -12.9 -3.5 -19.6 -10.4 7.2 5.9 13.3 8.8 18.4 8.8 4 0 6.9 -1.6 8.8 -4.8 1.3 -4.3 -1.6 -7.6 -8.8 -10 5.9 3.2 8.1 6.4 6.8 9.6 -1.3 2.1 -3.6 3.2 -6.8 3.2 -5.6 0 -11.7 -3.6 -18.4 -10.8 6.7 6.1 12.4 9.2 17.2 9.2 2.7 0 4.8 -0.8 6.4 -2.4 1.1 -2.7 -1.7 -4.8 -8.4 -6.4 4.5 2.1 6.7 4 6.4 5.6 -1.9 3.5 -5.9 3.2 -12 -0.8 -2.9 -1.6 -4.4 -3.7 -4.4 -6.4 -0 -2.1 0.8 -4.3 2.4 -6.4 0.5 -0.8 0.4 -1.6 -0.4 -2.4 -4.8 -1.3 -8.1 -1.2 -10 0.4 -0.8 0.5 -2 3.3 -3.6 8.4 -0.3 -1.6 -1.3 -2.7 -3 -3.2 -1.7 -0.5 -4.9 -0.7 -9.4 -0.4 -3.5 0.3 -6.1 -0.5 -8 -2.4 -0.5 -0.3 -0.9 -0.4 -1.2 -0.4 -1.1 0 -1.6 1.5 -1.6 4.4 -0 2.7 2.5 5.7 7.6 9.2 -5.1 1.6 -8.1 2.7 -9.2 3.2 -3.2 1.6 -5.1 3.9 -5.6 6.8 -1.1 6.4 1.2 9.7 6.8 10 1.9 0 3.2 -1.1 4 -3.2 0.5 -2.4 -0.7 -4.1 -3.6 -5.2 -0.5 0.3 -1.1 0.4 -1.6 0.4 -0.3 -0.8 -0.4 -1.5 -0.4 -2 -0 -3.7 3.3 -5.9 10 -6.4 4 -0.5 8.7 0.3 14 2.4 4.5 1.9 8.9 3.9 13.2 6 -3.2 -2.7 -6 -4.9 -8.4 -6.8 -7.2 -5.6 -12.4 -8.4 -15.6 -8.4 -1.3 0 -3.6 -1.7 -6.8 -5.2 2.9 2.4 5.3 3.5 7.2 3.2 4 -0.5 8.5 1.9 13.6 7.2 7.7 8.3 15.2 12.4 22.4 12.4 6.4 0 11.7 -2.8 16 -8.4 z M 34.8 228.8 c -0.3 -0.3 -0.9 -0.3 -2 0 -4 1.6 -7.1 4.7 -9.2 9.2 -1.3 2.7 -1.5 5.6 -0.4 8.8 0.3 0.5 0.9 1.7 2 3.4 1.1 1.7 1.6 3.1 1.6 4.2 -0 1.6 -0.7 2.9 -2.2 3.8 -1.5 0.9 -2.9 1 -4.2 0.2 -2.9 -1.9 -3.2 -3.2 -0.8 -4 -0 0 0.3 0.1 0.8 0.4 0.5 -0.5 0.9 -1.3 1.2 -2.4 -0.5 -1.3 -1.3 -1.5 -2.4 -0.4 -2.9 2.1 -3.2 4.4 -0.8 6.8 2.1 2.1 4.5 2.3 7.2 0.4 2.7 -1.9 3.5 -4.3 2.4 -7.2 -0.8 -0.8 -1.6 -2.3 -2.4 -4.4 2.7 0.8 4.4 0.9 5.2 0.4 2.1 -1.1 3.3 -2.4 3.6 -4 0.5 -3.2 -0.4 -5.1 -2.8 -5.6 -1.1 0.3 -1.9 1.1 -2.4 2.4 0.5 0.8 1.1 1.1 1.6 0.8 0.8 -0.5 1.3 -0.7 1.6 -0.4 0.8 1.6 0.7 2.9 -0.4 4 -2.9 2.7 -5.2 2.5 -6.8 -0.4 -1.1 -1.6 -1.3 -3.2 -0.8 -4.8 1.3 -3.7 4.5 -7.1 9.6 -10 0.5 -0.3 0.8 -0.7 0.8 -1.2 z m 191.6 42 c 1.1 -7.7 -0.8 -13.7 -5.6 -18 -1.9 -1.6 -2.8 -2 -2.8 -1.2 -0 0.5 0.1 1.2 0.4 2 3.5 4.8 5.2 10.1 5.2 16 -1.6 21.9 -16.1 32.8 -43.6 32.8 -15.5 0 -27.5 -3.6 -36 -10.8 -0.5 0.8 -1.2 1.6 -2 2.4 8.8 8 21.3 12 37.6 12 28.8 -0.3 44.4 -12 46.8 -35.2 z m -82.4 -4.4 c -0 -7.5 -1.7 -10.8 -5.2 -10 -2.9 0 -4.8 1.5 -5.6 4.4 -0.5 1.3 -0.7 2.9 -0.4 4.8 0.8 6.7 2.5 12.4 5.2 17.2 4 -5.6 6 -11.1 6 -16.4 z"></path></g>
</svg>